<?xml version="1.0" encoding="UTF-8"?>
<svg width="195px" height="16px" viewBox="0 0 195 16" version="1.1" xmlns="http://www.w3.org/2000/svg" xmlns:xlink="http://www.w3.org/1999/xlink">
    <title>Logo</title>
    <g id="Endeavour-Website" stroke="none" stroke-width="1" fill="none" fill-rule="evenodd">
        <g id="UI-/-HeaderMenu" transform="translate(-80.000000, -37.000000)" fill="#FFFFFF">
            <path d="M271.554258,42.5468855 C271.554258,41.0883742 270.538068,40.3375309 268.88083,40.3375309 L265.50207,40.3375309 L265.50207,44.779177 L268.947587,44.779177 C270.60415,44.779177 271.554258,43.8949854 271.554258,42.5914099 L271.554258,42.5468855 Z M272.06831,47.7686081 L274.864913,51.8590061 C275.119129,52.2307173 274.853449,52.7348774 274.403008,52.7348774 L271.786896,52.7348774 C271.599437,52.7348774 271.425464,52.641781 271.32162,52.4868451 L268.174149,47.7845739 L265.50207,47.7845739 L265.50207,52.1747245 C265.50207,52.4843715 265.251,52.7348774 264.94194,52.7348774 L262.659613,52.7348774 C262.350553,52.7348774 262.100158,52.4843715 262.100158,52.1747245 L262.100158,37.8255003 C262.100158,37.5163031 262.350553,37.2651226 262.659613,37.2651226 L269.168762,37.2651226 C271.13506,37.2651226 272.658334,37.8178547 273.674749,38.8344952 C274.536072,39.6961997 275,40.9118507 275,42.370362 L275,42.4142118 C275,44.6471779 273.922447,46.1380706 272.289485,46.9503036 C271.982447,47.102541 271.874782,47.4857207 272.06831,47.7686081 L272.06831,47.7686081 Z M226.441786,45.0008995 C226.441786,42.3480998 224.49774,40.1380706 221.758679,40.1380706 C219.019617,40.1380706 217.119627,42.3040252 217.119627,44.9557005 L217.119627,45.0008995 C217.119627,47.652125 219.063672,49.8619294 221.803183,49.8619294 C224.54247,49.8619294 226.441786,47.6959748 226.441786,45.0449741 L226.441786,45.0008995 Z M229.99834,44.9557005 L229.99834,45.0008995 C229.99834,49.3986957 226.530346,53 221.758679,53 C216.987012,53 213.563747,49.4425455 213.563747,45.0449741 L213.563747,45.0008995 C213.563747,40.6033281 217.031741,37 221.803183,37 C226.574176,37 229.99834,40.5581291 229.99834,44.9557005 L229.99834,44.9557005 Z M135.812703,45.0004497 C135.812703,42.2599505 133.934965,40.3368563 131.152073,40.3368563 L128.52315,40.3368563 L128.52315,49.6631437 L131.152073,49.6631437 C133.934965,49.6631437 135.812703,47.7845739 135.812703,45.0442995 L135.812703,45.0004497 Z M139.368583,44.9557005 L139.368583,45.0004497 C139.368583,49.3539465 136.011401,52.7348774 131.152073,52.7348774 L125.67957,52.7348774 C125.371858,52.7348774 125.121463,52.4843715 125.121463,52.1765235 L125.121463,37.8241511 C125.121463,37.5156285 125.371858,37.2651226 125.67957,37.2651226 L131.152073,37.2651226 C136.011401,37.2651226 139.368583,40.6026535 139.368583,44.9557005 L139.368583,44.9557005 Z M83.3794345,49.7072183 L83.3794345,46.4587362 L90.1077345,46.4587362 C90.4172444,46.4587362 90.6689881,46.2071059 90.6689881,45.8972341 L90.6689881,43.9925793 C90.6689881,43.6822577 90.4172444,43.4310771 90.1077345,43.4310771 L83.3794345,43.4310771 L83.3794345,40.2930065 L91.1021222,40.2930065 C91.4118569,40.2930065 91.6629262,40.041826 91.6629262,39.7312795 L91.6629262,37.8266247 C91.6629262,37.5169777 91.4118569,37.2651226 91.1021222,37.2651226 L80.5612536,37.2651226 C80.2510694,37.2651226 80,37.5169777 80,37.8266247 L80,52.1733753 C80,52.4836969 80.2510694,52.7348774 80.5612536,52.7348774 L91.2124848,52.7348774 C91.522669,52.7348774 91.7737384,52.4836969 91.7737384,52.1733753 L91.7737384,50.2687205 C91.7737384,49.9588487 91.522669,49.7072183 91.2124848,49.7072183 L83.3794345,49.7072183 Z M179.223433,37.4953902 C179.134873,37.288734 178.932354,37.1549359 178.708033,37.1549359 L176.311747,37.1549359 C176.087426,37.1549359 175.884682,37.288734 175.796796,37.4953902 L169.646383,51.9559253 C169.489043,52.325163 169.759893,52.7348774 170.161334,52.7348774 L172.405899,52.7348774 C172.633367,52.7348774 172.838583,52.5972566 172.924671,52.3863279 L173.420291,51.168653 L175.415809,46.2599505 L175.411314,46.2599505 L176.103834,44.5693726 L177.466172,41.2433101 L179.520356,46.2599505 L179.51586,46.2599505 L181.510704,51.168653 L182.007224,52.3863279 C182.092412,52.5972566 182.297628,52.7348774 182.525097,52.7348774 L184.858446,52.7348774 C185.259663,52.7348774 185.531186,52.325163 185.373846,51.9559253 L179.223433,37.4953902 Z M251.923194,37.2651226 L249.640868,37.2651226 C249.331807,37.2651226 249.081412,37.5156285 249.081412,37.8248257 L249.081412,46.1272768 C249.081412,48.5801664 247.821795,49.8396672 245.745358,49.8396672 C243.669597,49.8396672 242.409979,48.5360917 242.409979,46.0164156 L242.409979,37.8248257 C242.409979,37.5156285 242.15891,37.2651226 241.849849,37.2651226 L239.568197,37.2651226 C239.258463,37.2651226 239.008068,37.5156285 239.008068,37.8248257 L239.008068,46.1050146 C239.008068,50.6575219 241.548431,52.9784124 245.701303,52.9784124 C249.853726,52.9784124 252.483099,50.6797841 252.483099,45.994828 L252.483099,37.8248257 C252.483099,37.5156285 252.232704,37.2651226 251.923194,37.2651226 L251.923194,37.2651226 Z M205.957491,37.2651226 L203.508384,37.2651226 C203.273723,37.2651226 203.06491,37.4110636 202.983319,37.6303126 L199.076346,48.1601079 L195.169374,37.6303126 C195.087782,37.4110636 194.878745,37.2651226 194.644308,37.2651226 L192.106417,37.2651226 C191.710145,37.2651226 191.439521,37.666067 191.587196,38.0339555 L197.389214,52.4940409 C197.473952,52.7063189 197.679618,52.8457387 197.908435,52.8457387 L200.155697,52.8457387 C200.38429,52.8457387 200.589506,52.7063189 200.674919,52.4940409 L206.476712,38.0339555 C206.624611,37.666067 206.353762,37.2651226 205.957491,37.2651226 L205.957491,37.2651226 Z M160.332091,49.7072183 L152.497692,49.7072183 L152.497692,46.4587362 L159.227116,46.4587362 C159.536176,46.4587362 159.787245,46.2082303 159.787245,45.8985833 L159.787245,43.99123 C159.787245,43.6822577 159.536176,43.4310771 159.227116,43.4310771 L152.497692,43.4310771 L152.497692,40.2930065 L160.221054,40.2930065 C160.530114,40.2930065 160.781184,40.0425006 160.781184,39.7326287 L160.781184,37.8255003 C160.781184,37.5163031 160.530114,37.2651226 160.221054,37.2651226 L149.677713,37.2651226 C149.368652,37.2651226 149.117583,37.5163031 149.117583,37.8255003 L149.117583,52.1747245 C149.117583,52.4843715 149.368652,52.7348774 149.677713,52.7348774 L160.332091,52.7348774 C160.641151,52.7348774 160.891546,52.4843715 160.891546,52.1747245 L160.891546,50.2673713 C160.891546,49.958174 160.641151,49.7072183 160.332091,49.7072183 L160.332091,49.7072183 Z M115.2621,37.8248257 L115.2621,52.1751743 C115.2621,52.4843715 115.011256,52.7348774 114.70287,52.7348774 L112.645539,52.7348774 C112.470218,52.7348774 112.30591,52.6532494 112.200043,52.5149539 L104.880595,42.9006072 L104.880595,52.1751743 C104.880595,52.4843715 104.629525,52.7348774 104.321139,52.7348774 L102.081519,52.7348774 C101.773133,52.7348774 101.522738,52.4843715 101.522738,52.1751743 L101.522738,37.8248257 C101.522738,37.5156285 101.773133,37.2651226 102.081519,37.2651226 L104.381603,37.2651226 C104.55625,37.2651226 104.721232,37.3467506 104.826425,37.4863953 L111.904469,46.7901956 L111.904469,37.8248257 C111.904469,37.5156285 112.154864,37.2651226 112.463924,37.2651226 L114.70287,37.2651226 C115.011256,37.2651226 115.2621,37.5156285 115.2621,37.8248257 L115.2621,37.8248257 Z" id="Logo"></path>
        </g>
    </g>
</svg>