<?xml version="1.0" encoding="UTF-8"?>
<svg width="139px" height="48px" viewBox="0 0 139 48" version="1.1" xmlns="http://www.w3.org/2000/svg" xmlns:xlink="http://www.w3.org/1999/xlink">
    <title>Logo/Black</title>
    <g id="Adviesgesprek_Detail" stroke="none" stroke-width="1" fill="none" fill-rule="evenodd">
        <g id="Gesprek_A_1920x1080" transform="translate(-255.000000, -36.000000)" fill="#1E1E1C">
            <g id="Group" transform="translate(255.000000, 35.999929)">
                <g id="Logo/Black" transform="translate(0.000000, 0.000000)">
                    <path d="M9.6602625,5.2415094 C9.6602625,5.00557318 9.65777563,4.76679863 9.65315717,4.52625012 C9.64818344,4.28534682 9.63645965,4.05650643 9.61763053,3.83901936 C9.75938183,4.07531037 9.9014884,4.31373013 10.0432397,4.55463343 C10.184991,4.79553673 10.3175054,5.02437712 10.4404276,5.2415094 L19.8027636,20.1729016 L21.7176497,20.1729016 L21.7176497,0.340067469 L19.7317104,0.340067469 L19.7317104,15.257268 C19.7317104,15.4839797 19.7363288,15.7199159 19.745921,15.9654315 C19.7551579,16.2109471 19.7647501,16.4568175 19.7743423,16.702333 C19.632591,16.4380135 19.4904845,16.1850473 19.3487332,15.944144 C19.2069818,15.7032407 19.0652305,15.4651758 18.923124,15.2288847 L9.67447316,0.340067469 L7.67432319,0.340067469 L7.67432319,20.1729016 L9.6602625,20.1729016 L9.6602625,5.2415094 Z" id="Fill-2"></path>
                    <path d="M38.8674968,12.4875897 C38.5175594,11.8031973 38.0589104,11.2174368 37.49155,10.7310179 C36.9241895,10.244599 36.2974995,9.83126717 35.6118353,9.49137709 C34.9261711,9.15148702 34.2479675,8.8541719 33.576514,8.59907695 C32.8105595,8.29679476 32.084395,7.98032091 31.399086,7.6500102 C30.7130666,7.3193447 30.1577852,6.92268802 29.732176,6.45968536 C29.3065668,5.99739228 29.0937622,5.4212112 29.0937622,4.73149689 C29.0937622,3.84380904 29.4177652,3.14274141 30.0654159,2.62793922 C30.7130666,2.11313704 31.6047853,1.85591334 32.7395063,1.85591334 C33.751305,1.85591334 34.5858259,2.0613375 35.2430688,2.47218584 C35.9003116,2.88303418 36.3614475,3.41415676 36.6261209,4.0659084 L38.4845196,3.44254007 C38.2763335,2.7719845 37.9171591,2.17699947 37.406286,1.65758499 C36.8957682,1.13817052 36.2573544,0.73193447 35.4914,0.43923164 C34.7254456,0.146528811 33.8550428,0 32.8812576,0 C31.6420883,0 30.5876575,0.212519994 29.7179653,0.637559982 C28.8475626,1.06259997 28.1835696,1.63168523 27.7249207,2.34446097 C27.2662717,3.05794629 27.0367696,3.84877612 27.0367696,4.71766003 C27.0367696,5.55816064 27.2023238,6.28512804 27.5334321,6.898917 C27.8641851,7.51306076 28.3064918,8.03495877 28.8596416,8.46461105 C29.4127915,8.89426332 30.0274024,9.26714899 30.7038297,9.58362283 C31.3799017,9.90009668 32.0584605,10.1857037 32.7395063,10.4407986 C33.533882,10.7335015 34.280652,11.0758751 34.9808821,11.4675647 C35.6804017,11.8596091 36.2477622,12.3414157 36.6829636,12.9126297 C37.1178097,13.4841985 37.335588,14.1714292 37.335588,14.9736124 C37.335588,16.1639372 36.9547424,17.070429 36.1934064,17.6937974 C35.4320705,18.3171657 34.4227586,18.6286725 33.1647602,18.6286725 C32.0488683,18.6286725 31.0701093,18.3409367 30.2284832,17.7647556 C29.386857,17.1885745 28.753417,16.432869 28.3278078,15.497994 L26.4125665,16.1777741 C26.7152535,16.9902462 27.1810078,17.7246642 27.8098294,18.3810281 C28.4386509,19.037392 29.2024737,19.5564517 30.1009425,19.9389168 C30.9994113,20.3217366 32.0016179,20.5129691 33.1082728,20.5129691 C34.3186655,20.5129691 35.3968991,20.295482 36.3422631,19.8612175 C37.2879823,19.4269529 38.032976,18.7964887 38.5765336,17.969825 C39.1204465,17.1438708 39.3922253,16.1355539 39.3922253,14.9455839 C39.3922253,13.9915501 39.217079,13.1726917 38.8674968,12.4875897" id="Fill-4"></path>
                    <path d="M46.3004165,2.2101015 L51.562978,2.2101015 C52.6788698,2.2101015 53.5467857,2.42013795 54.1660151,2.84056566 C54.7855997,3.26063857 55.2158274,3.78253658 55.4570533,4.40555012 C55.6982792,5.02891845 55.8187145,5.6430622 55.8187145,6.2472718 C55.8187145,6.87064013 55.6862001,7.49187971 55.4215266,8.11028097 C55.1564979,8.72903701 54.7124149,9.24348441 54.0882118,9.65433274 C53.4640086,10.0651811 52.6223825,10.2706052 51.562978,10.2706052 L46.3004165,10.2706052 L46.3004165,2.2101015 Z M46.3004165,12.1407102 L51.449648,12.1407102 C52.6131456,12.1407102 53.596523,11.9633146 54.4001357,11.6092329 C55.2037483,11.2551511 55.8588596,10.787891 56.3651143,10.2067428 C56.8706584,9.62594944 57.2372933,8.99087299 57.4643086,8.30151348 C57.6913238,7.61215397 57.8046538,6.92740674 57.8046538,6.2472718 C57.8046538,5.27478883 57.6081915,4.33494665 57.2159774,3.42845485 C56.823408,2.52160827 56.1640335,1.78044922 55.2371434,1.20426814 C54.3102533,0.628087054 53.0476364,0.339996511 51.449648,0.339996511 L44.3144772,0.339996511 L44.3144772,20.1728307 L46.3004165,20.1728307 L46.3004165,12.1407102 Z" id="Fill-7"></path>
                    <polygon id="Fill-9" points="61.9037533 20.1727952 63.8896927 20.1727952 63.8896927 0.339961032 61.9037533 0.339961032"></polygon>
                    <path d="M79.5075244,9.00999625 C78.9209795,9.37826962 78.1219853,9.56240631 77.1101866,9.56240631 L71.5637672,9.56240631 L71.5637672,2.18168272 L77.1101866,2.18168272 C78.1692358,2.18168272 78.989546,2.37752752 79.5714724,2.76957191 C80.1530435,3.16161631 80.5594683,3.64342291 80.7914573,4.21463692 C81.023091,4.78585092 81.1389078,5.33613224 81.1389078,5.86477129 C81.1389078,6.45975632 81.0134988,7.04090448 80.7630359,7.6075062 C80.5122178,8.17410792 80.093714,8.64172287 79.5075244,9.00999625 M82.6637113,8.20249123 C82.9898459,7.43756116 83.1532684,6.64389301 83.1532684,5.82255113 C83.1532684,4.91570454 82.9663983,4.04220834 82.5930133,3.20170773 C82.219273,2.36120712 81.5904514,1.67433114 80.7061933,1.14037022 C79.8219352,0.607118888 78.6090556,0.339961032 77.0675546,0.339961032 L69.5778278,0.339961032 L69.5778278,20.1727952 L71.5637672,20.1727952 L71.5637672,11.4037732 L76.2309022,11.4037732 L80.4578621,20.1727952 L82.699238,20.1727952 L78.3301715,11.2905948 C79.4744846,11.1018458 80.4013747,10.7310889 81.1104865,10.1786788 C81.8199536,9.62591396 82.3375767,8.96742129 82.6637113,8.20249123" id="Fill-11"></path>
                    <path d="M90.5718709,13.34473 L93.2530666,5.62411635 C93.3095539,5.45417131 93.3877125,5.22036384 93.4868319,4.92269393 C93.5863065,4.62537881 93.6854258,4.32061308 93.7849004,4.00910631 C93.8840197,3.69759954 93.9572046,3.44250459 94.0048103,3.24417625 C94.0520608,3.44250459 94.1252456,3.69759954 94.2247202,4.00910631 C94.3238396,4.32061308 94.4233142,4.62537881 94.5224335,4.92269393 C94.6215528,5.22036384 94.6997114,5.45417131 94.7565541,5.62411635 L97.4231839,13.34473 L90.5718709,13.34473 Z M93.11096,0.340209386 L86.1459617,20.1730435 L88.2455863,20.1730435 L90.0045104,15.0871101 L98.0193209,15.0871101 L99.7924556,20.1730435 L101.849448,20.1730435 L94.8840947,0.340209386 L93.11096,0.340209386 Z" id="Fill-12"></path>
                    <polygon id="Fill-13" points="101.707129 2.25239262 107.210916 2.25239262 107.210916 20.1729016 109.196855 20.1729016 109.196855 2.25239262 114.715209 2.25239262 114.715209 0.340067469 101.707129 0.340067469"></polygon>
                    <polygon id="Fill-14" points="119.169148 20.1727952 121.155088 20.1727952 121.155088 0.339961032 119.169148 0.339961032"></polygon>
                    <polygon id="Fill-15" points="128.829198 18.2889598 128.829198 10.8372779 135.028241 10.8372779 135.028241 8.98136459 128.829198 8.98136459 128.829198 2.19598081 138.163112 2.19598081 138.163112 0.340067469 126.843258 0.340067469 126.843258 20.1729016 138.787315 20.1729016 138.787315 18.2889598"></polygon>
                    <polygon id="Fill-16" points="11.7883439 35.982083 1.986188 35.982083 1.986188 27.3830061 0.000248686497 27.3830061 0.000248686497 47.2158402 1.986188 47.2158402 1.986188 37.8518332 11.7883439 37.8518332 11.7883439 47.2158402 13.7742832 47.2158402 13.7742832 27.3830061 11.7883439 27.3830061"></polygon>
                    <path d="M31.1794603,39.877869 C31.1794603,41.275392 30.982998,42.3993708 30.5907839,43.2494508 C30.1982145,44.099176 29.6354725,44.717932 28.9029131,45.1050094 C28.1696432,45.4924415 27.2974641,45.6858027 26.2856654,45.6858027 C24.5548073,45.6858027 23.3113748,45.1759676 22.5550126,44.1559426 C21.7982951,43.1359176 21.4199364,41.7100113 21.4199364,39.877869 L21.4199364,27.3828287 L19.4343524,27.3828287 L19.4343524,39.8920607 C19.4343524,41.5258746 19.675223,42.9116895 20.1576748,44.0495052 C20.6397713,45.1876757 21.3868966,46.0565596 22.3986954,46.656157 C23.4108494,47.2557543 24.7061508,47.5559077 26.2856654,47.5559077 C27.4015572,47.5559077 28.3870662,47.4022831 29.2432583,47.0953886 C30.0990951,46.7884941 30.8177991,46.3162669 31.3993703,45.6787069 C31.9809414,45.0415017 32.4207612,44.2435761 32.7184745,43.2845752 C33.016543,42.3262838 33.1653997,41.1952091 33.1653997,39.8920607 L33.1653997,27.3828287 L31.1794603,27.3828287 L31.1794603,39.877869 Z" id="Fill-17"></path>
                    <polygon id="Fill-18" points="38.8110805 47.2156983 40.7970198 47.2156983 40.7970198 27.3828642 38.8110805 27.3828642"></polygon>
                    <path d="M56.5708135,37.7739565 C56.003453,37.2875377 55.3767631,36.8742058 54.6910989,36.5343157 C54.0054347,36.1944256 53.3272311,35.8971105 52.6557775,35.6420156 C51.8898231,35.3397334 51.1636585,35.0232595 50.4783496,34.6929488 C49.7923302,34.3622833 49.2370487,33.9656266 48.8114396,33.502624 C48.3858304,33.0403309 48.1730258,32.4641498 48.1730258,31.7744355 C48.1730258,30.8867477 48.4970288,30.18568 49.1446795,29.6708778 C49.7923302,29.1560757 50.6840489,28.898852 51.8187698,28.898852 C52.8305686,28.898852 53.6650894,29.1042761 54.3223323,29.5151245 C54.9795752,29.9259728 55.440711,30.4570954 55.7053845,31.108847 L57.5637832,30.4854787 C57.3555971,29.8149231 56.9964227,29.2199381 56.4855496,28.7005236 C55.9750317,28.1811091 55.336618,27.7748731 54.5706636,27.4821703 C53.8047091,27.1894674 52.9343064,27.0429386 51.9605211,27.0429386 C50.7213519,27.0429386 49.6669211,27.2554586 48.7972289,27.6804986 C47.9268262,28.1055386 47.2628332,28.6746238 46.8041843,29.3873996 C46.3455353,30.1008849 46.1160332,30.8917147 46.1160332,31.7605987 C46.1160332,32.6010993 46.2815873,33.3280667 46.6126957,33.9418556 C46.9434487,34.5559994 47.3857554,35.0778974 47.9389052,35.5075497 C48.492055,35.9372019 49.106666,36.3100876 49.7830932,36.6265615 C50.4591652,36.9430353 51.1377241,37.2286423 51.8187698,37.4837373 C52.6131456,37.7764401 53.3599156,38.1188137 54.0601457,38.5105033 C54.7596653,38.9025477 55.3270258,39.3843543 55.7622271,39.9555683 C56.1970732,40.5271371 56.4148516,41.2143679 56.4148516,42.016551 C56.4148516,43.2068759 56.034006,44.1133676 55.27267,44.736736 C54.5113341,45.3601043 53.5020222,45.6716111 52.2440237,45.6716111 C51.1281319,45.6716111 50.1493729,45.3838753 49.3077467,44.8076942 C48.4661206,44.2315132 47.8326806,43.4758077 47.4070714,42.5409326 L45.4918301,43.2207127 C45.7945171,44.0331848 46.2602714,44.7676028 46.8890929,45.4239667 C47.5179145,46.0803307 48.2817373,46.5993904 49.1802061,46.9818554 C50.0786749,47.3646752 51.0808815,47.5559077 52.1875364,47.5559077 C53.3979291,47.5559077 54.4761627,47.3384206 55.4215266,46.9041561 C56.3672459,46.4698915 57.1122396,45.8394274 57.6557972,45.0127636 C58.1997101,44.1868095 58.4714889,43.1784926 58.4714889,41.9885225 C58.4714889,41.0344887 58.2963425,40.2156303 57.9467604,39.5305283 C57.596823,38.8461359 57.138174,38.2603754 56.5708135,37.7739565" id="Fill-19"></path>
                    <path d="M70.1185433,31.323886 C69.8844228,31.4948954 69.6332494,31.6584542 69.3643127,31.8142076 C69.0133095,32.0167935 68.6750959,32.2424407 68.3496718,32.4915042 C68.0242478,32.7405677 67.7329293,33.0268843 67.4757164,33.3500992 C67.2185035,33.6729593 67.0138701,34.0476189 66.861816,34.4737233 C66.709762,34.9001824 66.633735,35.3915684 66.633735,35.9482359 L72.1766017,35.9482359 L72.1766017,34.8036792 L68.0135898,34.8036792 C68.0796693,34.5120407 68.2015257,34.2509143 68.3788037,34.0213643 C68.5564369,33.7918144 68.7784784,33.5775204 69.0456387,33.3791921 C69.3124438,33.1805089 69.6154861,32.9818258 69.9547655,32.7834975 C70.3444928,32.5578502 70.7022461,32.3212044 71.0276701,32.0739149 C71.3530942,31.8269801 71.614215,31.5399539 71.8110326,31.2128363 C72.0078502,30.8857188 72.1066143,30.4826758 72.1066143,30.0040624 C72.1066143,29.5410597 72.0021659,29.1312757 71.7936245,28.7750653 C71.5850831,28.4188548 71.284883,28.139634 70.8933794,27.9370482 C70.5015205,27.7344624 70.0286609,27.6333468 69.4751558,27.6333468 C68.8164919,27.6333468 68.244513,27.7969056 67.759219,28.1240232 C67.2739251,28.450786 66.941751,28.8712137 66.7623414,29.3849515 L67.8206801,29.8582431 C67.9414707,29.5194174 68.1315382,29.2480021 68.3908827,29.0436423 C68.6498719,28.8392825 69.0054936,28.7371026 69.4577478,28.7371026 C69.9021861,28.7371026 70.2538999,28.8566673 70.5132443,29.0961514 C70.7722336,29.3356355 70.9019058,29.6361438 70.9019058,29.9983857 C70.9019058,30.2822187 70.8297867,30.531637 70.6855486,30.7455762 C70.5413104,30.9598701 70.3523087,31.1525218 70.1185433,31.323886" id="Fill-20"></path>
                    <path d="M75.1498264,30.7749529 C75.1984979,30.4091631 75.2841172,30.071047 75.4070393,29.7616689 C75.5296062,29.4522909 75.7022657,29.2042918 75.9243072,29.0173168 C76.146704,28.8303418 76.4312724,28.7370316 76.7780125,28.7370316 C77.113384,28.7370316 77.3901365,28.8257295 77.6082701,29.0027703 C77.8267589,29.1798112 77.9972868,29.4192953 78.1198537,29.7208679 C78.2427759,30.0224406 78.3305267,30.3584279 78.3831062,30.7281205 C78.4356856,31.0981678 78.4619753,31.475311 78.4619753,31.8609691 C78.4619753,32.2189535 78.4385277,32.5811955 78.3919878,32.9469853 C78.3450927,33.3131299 78.260184,33.6487625 78.1376171,33.9542378 C78.0146949,34.2600679 77.8431012,34.5059383 77.622836,34.6929133 C77.4029261,34.8795336 77.1211998,34.9731985 76.7780125,34.9731985 C76.442641,34.9731985 76.1651779,34.8845006 75.9449127,34.7074598 C75.7246475,34.5304189 75.5502117,34.2930635 75.4216053,33.9950388 C75.2929988,33.6973689 75.2031164,33.3624459 75.1526686,32.9906246 C75.1018655,32.6191581 75.0766416,32.2423698 75.0766416,31.8609691 C75.0766416,31.5029847 75.1007997,31.1407428 75.1498264,30.7749529 M75.3747101,35.720389 C75.7491609,35.9659046 76.2166915,36.0883076 76.7780125,36.0883076 C77.2380825,36.0883076 77.633494,36.0024481 77.9649576,35.8314386 C78.2960659,35.6600744 78.5731737,35.4283957 78.7952152,35.1364025 C79.017612,34.844764 79.1938241,34.5155177 79.3245622,34.1497278 C79.454945,33.783938 79.54838,33.4032469 79.6048674,33.0083642 C79.6613548,32.6131267 79.6897761,32.2306617 79.6897761,31.8609691 C79.6897761,31.3550367 79.6421704,30.8526522 79.5466037,30.3545252 C79.451037,29.8560434 79.2932987,29.4019106 79.0730336,28.9910622 C78.8527684,28.5805687 78.5554104,28.2513223 78.1813148,28.0040328 C77.8072193,27.757098 77.3393334,27.6336307 76.7780125,27.6336307 C76.3143898,27.6336307 75.9157809,27.7191354 75.5825409,27.8904996 C75.249301,28.061509 74.9714827,28.2931877 74.7494412,28.585181 C74.5270444,28.8771742 74.3526086,29.2060657 74.2261337,29.5718556 C74.0993036,29.9380002 74.0083554,30.3183365 73.9539997,30.713574 C73.8992886,31.1088115 73.8722884,31.4909218 73.8722884,31.8609691 C73.8722884,32.3669015 73.9191835,32.869286 74.0126186,33.367413 C74.1060537,33.86554 74.2630814,34.321092 74.4833466,34.7337143 C74.7032565,35.1463366 75.0006145,35.4752282 75.3747101,35.720389" id="Fill-21"></path>
                    <path d="M68.3788037,45.9331987 C68.5564369,45.7036487 68.7784784,45.4893548 69.0456387,45.2910264 C69.3124438,45.0923433 69.6154861,44.8936602 69.9547655,44.6953318 C70.3444928,44.4696846 70.7022461,44.2330388 71.0276701,43.9857492 C71.3530942,43.7388145 71.614215,43.4517883 71.8110326,43.1246707 C72.0078502,42.7975531 72.1066143,42.3945102 72.1066143,41.9158967 C72.1066143,41.4528941 72.0021659,41.0431101 71.7936245,40.6868996 C71.5850831,40.3306892 71.284883,40.0514684 70.8933794,39.8488826 C70.5015205,39.6466515 70.0286609,39.5451812 69.4751558,39.5451812 C68.8164919,39.5451812 68.244513,39.70874 67.759219,40.0358576 C67.2739251,40.3626204 66.941751,40.7830481 66.7623414,41.2967859 L67.8206801,41.7700775 C67.9414707,41.4312518 68.1315382,41.1598364 68.3908827,40.9554766 C68.6498719,40.7511169 69.0054936,40.648937 69.4577478,40.648937 C69.9021861,40.648937 70.2538999,40.7685016 70.5132443,41.0079858 C70.7722336,41.2474699 70.9019058,41.5479781 70.9019058,41.9102201 C70.9019058,42.1940531 70.8297867,42.4434714 70.6855486,42.6574106 C70.5413104,42.8717045 70.3523087,43.0643562 70.1185433,43.2357204 C69.8844228,43.4067298 69.6332494,43.5702886 69.3643127,43.726042 C69.0133095,43.9286278 68.6750959,44.1542751 68.3496718,44.4033386 C68.0242478,44.6524021 67.7329293,44.9387187 67.4757164,45.2619336 C67.2185035,45.5847936 67.0138701,45.9594533 66.861816,46.3855576 C66.709762,46.8120168 66.633735,47.3034027 66.633735,47.8600703 L72.1766017,47.8600703 L72.1766017,46.7155135 L68.0135898,46.7155135 C68.0796693,46.4238751 68.2015257,46.1627487 68.3788037,45.9331987" id="Fill-22"></path>
                    <path d="M78.3919878,44.8588197 C78.3450927,45.2249643 78.260184,45.5605969 78.1376171,45.8660722 C78.0146949,46.1719023 77.8431012,46.4177727 77.622836,46.6047477 C77.4029261,46.7913679 77.1211998,46.8850328 76.7780125,46.8850328 C76.442641,46.8850328 76.1651779,46.796335 75.9449127,46.6192941 C75.7246475,46.4422533 75.5502117,46.2048979 75.4216053,45.9068732 C75.2929988,45.6092033 75.2031164,45.2742803 75.1526686,44.902459 C75.1018655,44.5309925 75.0766416,44.1542041 75.0766416,43.7728035 C75.0766416,43.414819 75.1007997,43.0525771 75.1498264,42.6867873 C75.1984979,42.3209974 75.2841172,41.9828813 75.4070393,41.6735033 C75.5296062,41.3641253 75.7022657,41.1161262 75.9243072,40.9291511 C76.146704,40.7421761 76.4312724,40.648866 76.7780125,40.648866 C77.113384,40.648866 77.3901365,40.7375638 77.6082701,40.9146047 C77.8267589,41.0916456 77.9972868,41.3311297 78.1198537,41.6327023 C78.2427759,41.9342749 78.3305267,42.2702623 78.3831062,42.6399548 C78.4356856,43.0100022 78.4619753,43.3871453 78.4619753,43.7728035 C78.4619753,44.1307879 78.4385277,44.4930298 78.3919878,44.8588197 M79.0730336,40.9028966 C78.8527684,40.492403 78.5554104,40.1631567 78.1813148,39.9158672 C77.8072193,39.6689324 77.3393334,39.545465 76.7780125,39.545465 C76.3143898,39.545465 75.9157809,39.6309697 75.5825409,39.8023339 C75.249301,39.9733433 74.9714827,40.2050221 74.7494412,40.4970153 C74.5270444,40.7890086 74.3526086,41.1179001 74.2261337,41.4836899 C74.0993036,41.8498346 74.0083554,42.2301709 73.9539997,42.6254084 C73.8992886,43.0206459 73.8722884,43.4027561 73.8722884,43.7728035 C73.8722884,44.2787359 73.9191835,44.7811204 74.0126186,45.2792474 C74.1060537,45.7773744 74.2630814,46.2329264 74.4833466,46.6455487 C74.7032565,47.058171 75.0006145,47.3870625 75.3747101,47.6322233 C75.7491609,47.8777389 76.2166915,48.0001419 76.7780125,48.0001419 C77.2380825,48.0001419 77.633494,47.9142824 77.9649576,47.743273 C78.2960659,47.5719088 78.5731737,47.3402301 78.7952152,47.0482368 C79.017612,46.7565984 79.1938241,46.427352 79.3245622,46.0615622 C79.454945,45.6957724 79.54838,45.3150813 79.6048674,44.9201986 C79.6613548,44.524961 79.6897761,44.142496 79.6897761,43.7728035 C79.6897761,43.2668711 79.6421704,42.7644866 79.5466037,42.2663596 C79.451037,41.7678778 79.2932987,41.3137449 79.0730336,40.9028966" id="Fill-23"></path>
                    <polygon id="Fill-24" points="66.6341258 38.1621337 79.6901669 38.1621337 79.6901669 37.9010073 66.6341258 37.9010073"></polygon>
                    <polygon id="Fill-1" points="0 20.4256331 2.04098993 20.4256331 2.04098993 7.09582617e-05 0 7.09582617e-05"></polygon>
                </g>
            </g>
        </g>
    </g>
</svg>