{
    "asset" : {
        "generator" : "Khronos glTF Blender I/O v1.8.19",
        "version" : "2.0"
    },
    "scene" : 0,
    "scenes" : [
        {
            "name" : "Scene",
            "nodes" : [
                0
            ]
        }
    ],
    "nodes" : [
        {
            "mesh" : 0,
            "name" : "Circle",
            "rotation" : [
                0.7071068286895752,
                0,
                0,
                0.7071068286895752
            ]
        }
    ],
    "meshes" : [
        {
            "name" : "Circle.003",
            "primitives" : [
                {
                    "attributes" : {
                        "POSITION" : 0,
                        "NORMAL" : 1,
                        "TEXCOORD_0" : 2
                    },
                    "indices" : 3
                }
            ]
        }
    ],
    "accessors" : [
        {
            "bufferView" : 0,
            "componentType" : 5126,
            "count" : 1633,
            "max" : [
                1.1959013938903809,
                0.20000004768371582,
                1.2000000476837158
            ],
            "min" : [
                -1.1959013938903809,
                -0.20000004768371582,
                -1.2000000476837158
            ],
            "type" : "VEC3"
        },
        {
            "bufferView" : 1,
            "componentType" : 5126,
            "count" : 1633,
            "type" : "VEC3"
        },
        {
            "bufferView" : 2,
            "componentType" : 5126,
            "count" : 1633,
            "type" : "VEC2"
        },
        {
            "bufferView" : 3,
            "componentType" : 5123,
            "count" : 9012,
            "type" : "SCALAR"
        }
    ],
    "bufferViews" : [
        {
            "buffer" : 0,
            "byteLength" : 19596,
            "byteOffset" : 0
        },
        {
            "buffer" : 0,
            "byteLength" : 19596,
            "byteOffset" : 19596
        },
        {
            "buffer" : 0,
            "byteLength" : 13064,
            "byteOffset" : 39192
        },
        {
            "buffer" : 0,
            "byteLength" : 18024,
            "byteOffset" : 52256
        }
    ],
    "buffers" : [
        {
            "byteLength" : 70280,
            "uri" : "data:application/octet-stream;base64,"
        }
    ]
}
