{
    "asset" : {
        "generator" : "Khronos glTF Blender I/O v1.8.19",
        "version" : "2.0"
    },
    "scene" : 0,
    "scenes" : [
        {
            "name" : "Scene",
            "nodes" : [
                0
            ]
        }
    ],
    "nodes" : [
        {
            "mesh" : 0,
            "name" : "Plane.001"
        }
    ],
    "meshes" : [
        {
            "name" : "Plane.001",
            "primitives" : [
                {
                    "attributes" : {
                        "POSITION" : 0,
                        "NORMAL" : 1,
                        "TEXCOORD_0" : 2
                    },
                    "indices" : 3
                }
            ]
        }
    ],
    "accessors" : [
        {
            "bufferView" : 0,
            "componentType" : 5126,
            "count" : 367,
            "max" : [
                1.1979788541793823,
                0.20000000298023224,
                0.20000000298023224
            ],
            "min" : [
                -1.19797945022583,
                -0.20000000298023224,
                -0.20000000298023224
            ],
            "type" : "VEC3"
        },
        {
            "bufferView" : 1,
            "componentType" : 5126,
            "count" : 367,
            "type" : "VEC3"
        },
        {
            "bufferView" : 2,
            "componentType" : 5126,
            "count" : 367,
            "type" : "VEC2"
        },
        {
            "bufferView" : 3,
            "componentType" : 5123,
            "count" : 1536,
            "type" : "SCALAR"
        }
    ],
    "bufferViews" : [
        {
            "buffer" : 0,
            "byteLength" : 4404,
            "byteOffset" : 0
        },
        {
            "buffer" : 0,
            "byteLength" : 4404,
            "byteOffset" : 4404
        },
        {
            "buffer" : 0,
            "byteLength" : 2936,
            "byteOffset" : 8808
        },
        {
            "buffer" : 0,
            "byteLength" : 3072,
            "byteOffset" : 11744
        }
    ],
    "buffers" : [
        {
            "byteLength" : 14816,
            "uri" : "data:application/octet-stream;base64,"
        }
    ]
}
