{
    "asset" : {
        "generator" : "Khronos glTF Blender I/O v1.8.19",
        "version" : "2.0"
    },
    "scene" : 0,
    "scenes" : [
        {
            "name" : "Scene",
            "nodes" : [
                0
            ]
        }
    ],
    "nodes" : [
        {
            "mesh" : 0,
            "name" : "Square",
            "rotation" : [
                0,
                1,
                0,
                -1.6292068494294654e-07
            ]
        }
    ],
    "meshes" : [
        {
            "name" : "Plane.004",
            "primitives" : [
                {
                    "attributes" : {
                        "POSITION" : 0,
                        "NORMAL" : 1,
                        "TEXCOORD_0" : 2
                    },
                    "indices" : 3
                }
            ]
        }
    ],
    "accessors" : [
        {
            "bufferView" : 0,
            "componentType" : 5126,
            "count" : 1198,
            "max" : [
                1.1999602317810059,
                1.1997591257095337,
                0.20000006258487701
            ],
            "min" : [
                -1.1997591257095337,
                -1.1999602317810059,
                -0.20000006258487701
            ],
            "type" : "VEC3"
        },
        {
            "bufferView" : 1,
            "componentType" : 5126,
            "count" : 1198,
            "type" : "VEC3"
        },
        {
            "bufferView" : 2,
            "componentType" : 5126,
            "count" : 1198,
            "type" : "VEC2"
        },
        {
            "bufferView" : 3,
            "componentType" : 5123,
            "count" : 6336,
            "type" : "SCALAR"
        }
    ],
    "bufferViews" : [
        {
            "buffer" : 0,
            "byteLength" : 14376,
            "byteOffset" : 0
        },
        {
            "buffer" : 0,
            "byteLength" : 14376,
            "byteOffset" : 14376
        },
        {
            "buffer" : 0,
            "byteLength" : 9584,
            "byteOffset" : 28752
        },
        {
            "buffer" : 0,
            "byteLength" : 12672,
            "byteOffset" : 38336
        }
    ],
    "buffers" : [
        {
            "byteLength" : 51008,
            "uri" : "data:application/octet-stream;base64,"
        }
    ]
}
