{
    "asset" : {
        "generator" : "Khronos glTF Blender I/O v1.8.19",
        "version" : "2.0"
    },
    "scene" : 0,
    "scenes" : [
        {
            "name" : "Scene",
            "nodes" : [
                0
            ]
        }
    ],
    "nodes" : [
        {
            "mesh" : 0,
            "name" : "Triangle"
        }
    ],
    "meshes" : [
        {
            "name" : "Plane.002",
            "primitives" : [
                {
                    "attributes" : {
                        "POSITION" : 0,
                        "NORMAL" : 1,
                        "TEXCOORD_0" : 2
                    },
                    "indices" : 3
                }
            ]
        }
    ],
    "accessors" : [
        {
            "bufferView" : 0,
            "componentType" : 5126,
            "count" : 738,
            "max" : [
                1.3859648704528809,
                1.19902765750885,
                0.2000000923871994
            ],
            "min" : [
                -1.3859658241271973,
                -1.2103537321090698,
                -0.20000006258487701
            ],
            "type" : "VEC3"
        },
        {
            "bufferView" : 1,
            "componentType" : 5126,
            "count" : 738,
            "type" : "VEC3"
        },
        {
            "bufferView" : 2,
            "componentType" : 5126,
            "count" : 738,
            "type" : "VEC2"
        },
        {
            "bufferView" : 3,
            "componentType" : 5123,
            "count" : 3648,
            "type" : "SCALAR"
        }
    ],
    "bufferViews" : [
        {
            "buffer" : 0,
            "byteLength" : 8856,
            "byteOffset" : 0
        },
        {
            "buffer" : 0,
            "byteLength" : 8856,
            "byteOffset" : 8856
        },
        {
            "buffer" : 0,
            "byteLength" : 5904,
            "byteOffset" : 17712
        },
        {
            "buffer" : 0,
            "byteLength" : 7296,
            "byteOffset" : 23616
        }
    ],
    "buffers" : [
        {
            "byteLength" : 30912,
            "uri" : "data:application/octet-stream;base64,"
        }
    ]
}
